<?xml version="1.0" encoding="UTF-8" standalone="no"?>
<!-- Created with Inkscape (http://www.inkscape.org/) -->

<svg
   xmlns:dc="http://purl.org/dc/elements/1.1/"
   xmlns:cc="http://creativecommons.org/ns#"
   xmlns:rdf="http://www.w3.org/1999/02/22-rdf-syntax-ns#"
   xmlns:svg="http://www.w3.org/2000/svg"
   xmlns="http://www.w3.org/2000/svg"
   xmlns:xlink="http://www.w3.org/1999/xlink"
   xmlns:sodipodi="http://sodipodi.sourceforge.net/DTD/sodipodi-0.dtd"
   xmlns:inkscape="http://www.inkscape.org/namespaces/inkscape"
   width="793.70081"
   height="1122.5197"
   viewBox="0 0 210 297"
   version="1.1"
   id="svg8"
   inkscape:version="0.92.3 (2405546, 2018-03-11)"
   sodipodi:docname="logorz.svg">
  <defs
     id="defs2">
    <linearGradient
       inkscape:collect="always"
       id="linearGradient1115">
      <stop
         style="stop-color:#00aad4;stop-opacity:1"
         offset="0"
         id="stop1111" />
      <stop
         style="stop-color:#ff0000;stop-opacity:1"
         offset="1"
         id="stop1113" />
    </linearGradient>
    <linearGradient
       inkscape:collect="always"
       id="linearGradient929">
      <stop
         style="stop-color:#666666;stop-opacity:1"
         offset="0"
         id="stop925" />
      <stop
         style="stop-color:#e6e6e6;stop-opacity:1"
         offset="1"
         id="stop927" />
    </linearGradient>
    <linearGradient
       inkscape:collect="always"
       id="linearGradient911">
      <stop
         style="stop-color:#000000;stop-opacity:1"
         offset="0"
         id="stop907" />
      <stop
         style="stop-color:#333333;stop-opacity:1"
         offset="1"
         id="stop909" />
    </linearGradient>
    <linearGradient
       inkscape:collect="always"
       id="linearGradient889">
      <stop
         style="stop-color:#1a1a1a;stop-opacity:1"
         offset="0"
         id="stop885" />
      <stop
         style="stop-color:#333333;stop-opacity:1"
         offset="1"
         id="stop887" />
    </linearGradient>
    <linearGradient
       inkscape:collect="always"
       xlink:href="#linearGradient889"
       id="linearGradient891"
       x1="-201.72277"
       y1="527.69223"
       x2="413.34216"
       y2="527.69223"
       gradientUnits="userSpaceOnUse"
       gradientTransform="matrix(0.26458333,0,0,0.26458333,-51.979537,-61.309196)" />
    <linearGradient
       inkscape:collect="always"
       xlink:href="#linearGradient911"
       id="linearGradient913"
       x1="-396.61761"
       y1="296.31675"
       x2="217.10167"
       y2="296.31675"
       gradientUnits="userSpaceOnUse" />
    <linearGradient
       inkscape:collect="always"
       xlink:href="#linearGradient929"
       id="linearGradient931"
       x1="233.50508"
       y1="82.192041"
       x2="378.88445"
       y2="82.192041"
       gradientUnits="userSpaceOnUse" />
    <linearGradient
       inkscape:collect="always"
       xlink:href="#linearGradient929"
       id="linearGradient937"
       gradientUnits="userSpaceOnUse"
       x1="233.50508"
       y1="82.192041"
       x2="378.88445"
       y2="82.192041" />
    <linearGradient
       inkscape:collect="always"
       xlink:href="#linearGradient929"
       id="linearGradient931-6"
       x1="233.50508"
       y1="82.192039"
       x2="378.88446"
       y2="82.192039"
       gradientUnits="userSpaceOnUse" />
    <linearGradient
       inkscape:collect="always"
       xlink:href="#linearGradient929"
       id="linearGradient1005"
       gradientUnits="userSpaceOnUse"
       x1="233.50508"
       y1="82.192039"
       x2="378.88446"
       y2="82.192039" />
    <linearGradient
       inkscape:collect="always"
       xlink:href="#linearGradient929"
       id="linearGradient1007"
       gradientUnits="userSpaceOnUse"
       x1="233.50508"
       y1="82.192039"
       x2="378.88446"
       y2="82.192039" />
    <linearGradient
       inkscape:collect="always"
       xlink:href="#linearGradient929"
       id="linearGradient1009"
       gradientUnits="userSpaceOnUse"
       x1="233.50508"
       y1="82.192039"
       x2="378.88446"
       y2="82.192039" />
    <linearGradient
       inkscape:collect="always"
       xlink:href="#linearGradient1115"
       id="linearGradient1117"
       gradientUnits="userSpaceOnUse"
       x1="231.45627"
       y1="89.253471"
       x2="457.50848"
       y2="91.470215" />
    <linearGradient
       inkscape:collect="always"
       xlink:href="#linearGradient1115"
       id="linearGradient1119"
       gradientUnits="userSpaceOnUse"
       x1="231.45627"
       y1="89.253471"
       x2="457.50848"
       y2="91.470215" />
    <linearGradient
       inkscape:collect="always"
       xlink:href="#linearGradient1115"
       id="linearGradient1121"
       gradientUnits="userSpaceOnUse"
       x1="231.45627"
       y1="89.253471"
       x2="457.50848"
       y2="91.470215" />
    <linearGradient
       inkscape:collect="always"
       xlink:href="#linearGradient1115"
       id="linearGradient1123"
       gradientUnits="userSpaceOnUse"
       x1="231.45627"
       y1="89.253471"
       x2="457.50848"
       y2="91.470215" />
  </defs>
  <sodipodi:namedview
     id="base"
     pagecolor="#ffffff"
     bordercolor="#666666"
     borderopacity="1.0"
     inkscape:pageopacity="0.0"
     inkscape:pageshadow="2"
     inkscape:zoom="0.99257812"
     inkscape:cx="-1.1299916"
     inkscape:cy="808.28524"
     inkscape:document-units="px"
     inkscape:current-layer="layer1"
     showgrid="false"
     showborder="false"
     units="px"
     inkscape:window-width="1877"
     inkscape:window-height="1016"
     inkscape:window-x="0"
     inkscape:window-y="27"
     inkscape:window-maximized="1" />
  <metadata
     id="metadata5">
    <rdf:RDF>
      <cc:Work
         rdf:about="">
        <dc:format>image/svg+xml</dc:format>
        <dc:type
           rdf:resource="http://purl.org/dc/dcmitype/StillImage" />
        <dc:title></dc:title>
      </cc:Work>
    </rdf:RDF>
  </metadata>
  <g
     inkscape:label="Layer 1"
     inkscape:groupmode="layer"
     id="layer1">
    <path
       style="opacity:1;fill:url(#linearGradient891);fill-opacity:1;stroke:none;stroke-width:2.66561723;stroke-miterlimit:4;stroke-dasharray:none;stroke-opacity:1"
       d="M -9.2565166,147.46591 C -17.116027,146.4944 -26.102257,144.07022 -33.247077,140.99408 -43.520347,136.571 -61.1594,125.66389 -70.565715,117.9181 c -3.417649,-2.81433 -5.513334,-5.01767 -14.831781,-15.59372 -12.104806,-13.738448 -14.949774,-17.212958 -16.328804,-19.942148 -1.30306,-2.57882 -3.62572,-10.46968 -3.62572,-12.31779 0,-0.54282 0.36657,-1.87311 0.8146,-2.95618 0.44803,-1.08308 1.17164,-3.16877 1.60803,-4.63486 0.86908,-2.9198 1.74168,-4.75263 3.807246,-7.99685 5.55643,-8.727033 14.472821,-19.980627 17.954214,-22.660443 5.582228,-4.296942 11.016124,-7.963474 14.156605,-9.552199 9.996952,-5.057325 28.487388,-10.883987 39.864118,-12.5618899 3.85797,-0.568995 11.73688,-0.817063 14.29946,-0.450218 4.0263504,0.576387 15.4719404,4.1588269 17.7991304,5.5710829 1.90852,1.158181 9.8647696,6.911257 20.1785596,14.590879 7.93913,5.911458 8.25354,6.228167 13.27122,13.368501 2.60616,3.708649 6.99207,12.002327 8.86258,16.758967 1.40905,3.58317 4.55683,12.98809 7.89569,23.59071 l 2.22448,7.06388 -0.0276,5.06467 c -0.0234,4.29691 -0.11494,5.387948 -0.60368,7.197168 -0.96569,3.57481 -1.69499,4.7377 -5.34953,8.52992 -1.84187,1.91125 -5.02818,5.25564 -7.08071,7.43198 -2.05252,2.17634 -5.29125,5.25124 -7.19716,6.8331 -1.90592,1.58187 -4.12095,3.54758 -4.92229,4.36825 l -1.45699,1.49214 h -2.01082 c -1.10595,0 -4.40432,-0.41477 -7.3297,-0.92171 l -5.31888,-0.92172 -1.69475,0.83432 c -3.25548,1.60267 -4.3978696,3.27773 -8.3235896,12.2047 l -2.28585,5.19795 -6.1196,0.0291 c -3.36577,0.016 -6.47945,-0.0154 -6.91927,-0.0698 z M -48.041247,96.901182 c 0,-0.0506 -0.2699,-0.32048 -0.59977,-0.59977 l -0.59976,-0.50779 0.5078,0.59976 c 0.4772,0.56363 0.69173,0.72112 0.69173,0.5078 z"
       id="path883"
       inkscape:connector-curvature="0" />
    <path
       style="opacity:1;fill:#333333;fill-opacity:1;stroke:none;stroke-width:10.07477379;stroke-miterlimit:4;stroke-dasharray:none;stroke-opacity:1"
       d="m -47.136507,554.99277 c -41.284146,-7.10498 -75.243113,-19.08458 -113.064893,-39.88555 -36.57346,-20.11445 -76.30285,-46.06369 -102.59597,-67.01054 -13.01396,-10.3678 -22.40366,-19.87695 -47.71721,-48.3242 -46.36566,-52.10555 -66.21606,-75.77163 -71.926,-85.75175 -3.87975,-6.7812 -11.42436,-29.17064 -13.92753,-41.3314 l -1.77656,-8.63079 5.86102,-17.49546 c 3.22356,-9.6225 7.6174,-21.19967 9.76408,-25.72705 8.45762,-17.83719 40.66675,-62.3463 64.30196,-88.8575 11.95715,-13.41212 47.24383,-38.329934 70.08937,-49.493859 36.54308,-17.857495 95.41913,-36.514096 140.22951,-44.435824 8.570311,-1.515088 18.112421,-2.255374 34.105782,-2.645959 25.688426,-0.627355 29.048394,-0.152798 55.588743,7.851274 31.150434,9.394386 33.309509,10.471078 60.985053,30.41217 l 13.852814,9.981382 V 286.91615 490.18458 l -2.770563,1.23735 c -5.718794,2.55408 -10.263736,6.46494 -14.452122,12.4359 -3.896761,5.55521 -15.122839,28.63232 -22.544099,46.34321 l -2.849549,6.80048 -25.287662,-0.0941 c -19.470508,-0.0725 -27.721133,-0.51289 -35.866174,-1.91465 z M -182.64221,364.57334 c -1.00294,-1.10823 -2.27688,-2.01496 -2.83099,-2.01496 -0.55412,0 -0.1869,0.90673 0.81603,2.01496 1.00294,1.10822 2.27688,2.01495 2.83099,2.01495 0.55412,0 0.1869,-0.90673 -0.81603,-2.01495 z"
       id="path893"
       inkscape:connector-curvature="0"
       transform="scale(0.26458333)" />
    <path
       style="opacity:1;fill:#000000;fill-opacity:1;stroke:none;stroke-width:10.07477379;stroke-miterlimit:4;stroke-dasharray:none;stroke-opacity:1"
       d="m -40.587904,556.29006 c -9.775946,-1.32468 -34.52769,-6.88463 -47.919311,-10.76406 -37.158585,-10.76453 -76.437025,-30.51168 -128.389225,-64.54741 -40.15364,-26.30608 -56.75139,-39.97858 -80.77033,-66.53512 -26.37152,-29.15767 -73.15563,-83.19627 -75.32341,-87.0033 -0.51822,-0.91009 -1.5399,-2.2554 -2.27039,-2.98959 -3.30221,-3.31888 -10.03029,-14.61433 -10.90682,-18.31093 -0.19708,-0.83117 -1.77722,-5.5915 -3.51142,-10.57851 -1.7342,-4.98702 -3.30552,-9.74735 -3.49181,-10.57852 -0.18629,-0.83116 -1.12478,-4.45808 -2.08553,-8.05981 -3.25915,-12.21813 -3.16143,-13.08901 3.56084,-31.73554 3.39598,-9.41991 6.30587,-17.58048 6.46642,-18.13459 0.4485,-1.5479 6.49304,-13.85269 7.90153,-16.08504 7.64544,-12.11741 24.83703,-37.08963 29.1297,-42.31332 0.47132,-0.57355 2.25199,-2.85627 3.95703,-5.07272 6.74072,-8.76251 8.73688,-11.27048 15.97936,-20.07646 4.13463,-5.02721 10.70842,-12.20211 14.60842,-15.94423 8.5287,-8.18342 7.93987,-7.69468 19.20132,-15.93734 16.24986,-11.893845 19.37566,-14.031736 20.51573,-14.031736 0.6184,0 1.12436,-0.453365 1.12436,-1.007478 0,-0.554112 0.68005,-1.007477 1.51122,-1.007477 0.83117,0 1.51121,-0.404216 1.51121,-0.898259 0,-0.494042 1.02909,-1.156544 2.28688,-1.472226 1.25777,-0.315683 3.29791,-1.515905 4.53364,-2.66716 1.23573,-1.151254 2.24678,-1.896199 2.24678,-1.655433 0,0.240767 4.98216,-2.204975 11.07146,-5.43498 31.16402,-16.53062 96.17955,-37.507019 140.72025,-45.401518 17.302778,-3.066786 55.209779,-3.89722 66.437762,-1.455461 17.647608,3.837841 46.65263,13.065739 57.315589,18.234858 7.291164,3.534561 12.870493,7.386853 47.855175,33.041968 57.097994,41.871342 62.833824,46.861292 77.202434,67.163142 15.47441,21.86425 32.48916,54.09842 41.20688,78.06573 5.8218,16.00571 15.52867,45.31231 27.17474,82.04506 l 8.76365,27.64127 -0.72511,18.70269 c -1.20626,31.11337 -3.97288,38.13842 -22.95054,58.27628 -21.56318,22.88144 -42.28711,43.51327 -53.0963,52.8603 -5.81818,5.03116 -13.81422,12.29802 -17.76898,16.14858 l -7.19047,7.00102 -7.41795,-0.65166 c -4.07988,-0.35841 -16.528752,-2.07442 -27.664167,-3.81336 l -20.246205,-3.16168 -6.620658,3.70249 c -3.641365,2.03636 -8.463333,5.79587 -10.715509,8.35447 -4.600283,5.2262 -12.902742,21.05835 -22.256797,42.44196 l -6.28012,14.35656 -25.829453,-0.15096 c -14.206197,-0.083 -27.189538,-0.33524 -28.851875,-0.5605 z M -182.64781,364.56716 c -1.006,-1.11162 -2.0476,-1.80263 -2.31466,-1.53557 -0.67696,0.67697 1.83584,3.5567 3.1035,3.5567 0.57215,0 0.21717,-0.90951 -0.78884,-2.02113 z"
       id="path895"
       inkscape:connector-curvature="0"
       transform="scale(0.26458333)" />
    <path
       style="opacity:1;fill:#000000;fill-opacity:1;stroke:none;stroke-width:10.07477379;stroke-miterlimit:4;stroke-dasharray:none;stroke-opacity:1"
       d="m -30.009392,555.97401 c -17.079169,-0.6922 -28.868871,-2.79909 -54.403778,-9.72225 -37.0973,-10.05804 -74.9916,-28.66607 -128.45336,-63.07717 -31.27898,-20.13296 -49.69774,-34.05027 -66.89122,-50.54336 -14.018,-13.44694 -81.94135,-90.62509 -95.68394,-108.72122 -6.98897,-9.20301 -9.12172,-13.66812 -14.50318,-30.36383 -5.96486,-18.50568 -7.11596,-23.77117 -6.56872,-30.04763 0.48965,-5.61602 11.30969,-36.91662 15.91716,-46.04571 5.76516,-11.42293 25.81235,-40.17059 44.24148,-63.44227 15.26211,-19.27246 28.90661,-32.73396 44.90274,-44.30048 30.78028,-22.256686 55.60909,-34.499092 100.24644,-49.428773 35.40738,-11.842569 69.63999,-20.460696 92.184178,-23.207546 5.541126,-0.675147 19.595435,-1.243715 31.231799,-1.263485 19.542713,-0.0332 21.975862,0.166725 31.888663,2.620206 14.259059,3.529207 42.3634466,12.856937 50.641616,16.807745 8.32271,3.972063 53.559744,36.291804 88.740874,63.401203 25.90209,19.95928 41.38721,40.00629 61.95272,80.20387 11.98069,23.41761 19.11185,42.92496 42.2434,115.55712 l 9.20841,28.91407 -1.04858,18.94111 c -1.49111,26.93467 -3.3593,33.57838 -12.95467,46.06959 -8.30967,10.81749 -41.61436,44.3078 -75.07529,75.49369 l -12.82092,11.94923 -19.35348,-2.63468 c -10.644412,-1.44906 -23.079352,-3.24752 -27.6332,-3.99658 l -8.279711,-1.36191 -6.503418,3.89484 c -3.576887,2.14216 -8.358052,6.00182 -10.624816,8.577 -4.284045,4.86693 -15.290706,25.8492 -23.826275,45.4206 l -4.943087,11.33413 -13.60422935,-0.1769 C -7.2641092,556.72733 -20.866535,556.34456 -30.009392,555.97401 Z M -182.64781,364.56716 c -1.006,-1.11162 -2.0476,-1.80263 -2.31466,-1.53557 -0.67696,0.67697 1.83584,3.5567 3.1035,3.5567 0.57215,0 0.21717,-0.90951 -0.78884,-2.02113 z"
       id="path897"
       inkscape:connector-curvature="0"
       transform="scale(0.26458333)" />
    <path
       style="opacity:1;fill:#000000;fill-opacity:1;stroke:none;stroke-width:10.07477379;stroke-miterlimit:4;stroke-dasharray:none;stroke-opacity:1"
       d="m -33.535563,555.94754 c -23.891207,-1.32399 -60.899629,-10.90264 -90.169227,-23.3379 -37.60749,-15.97764 -100.90426,-54.25572 -136.00944,-82.25033 -18.79656,-14.98931 -40.41108,-37.87429 -88.19872,-93.38289 -33.00509,-38.33767 -34.68094,-40.84669 -41.66778,-62.38332 -6.46453,-19.92663 -7.5238,-24.8309 -6.83443,-31.64241 0.6471,-6.39388 10.75986,-35.5167 15.77376,-45.42544 10.16972,-20.09793 46.66601,-68.94726 65.95776,-88.28275 15.97974,-16.01596 43.60518,-35.0812 68.20827,-47.0728 39.22653,-19.119094 108.01534,-40.244697 146.95004,-45.129551 5.264069,-0.660444 19.545061,-1.232783 31.735537,-1.271864 l 22.164502,-0.07106 13.600944,3.689764 c 17.686387,4.798094 39.1948295,12.072101 46.960274,15.881645 6.949155,3.40909 23.451705,14.875996 57.313634,39.824752 51.098499,37.648304 59.995629,46.414324 78.853959,77.691914 20.57183,34.11953 28.10977,52.5725 52.62259,128.8207 l 13.27954,41.30657 -1.11048,19.14207 c -2.03529,35.08364 -3.00584,37.04548 -34.51672,69.77118 -16.76499,17.41131 -27.3261,27.66844 -54.061,52.50488 l -12.32905,11.45355 -9.78343,-1.20692 c -5.380884,-0.6638 -16.971921,-2.30432 -25.757869,-3.6456 -8.785939,-1.34127 -17.093798,-2.43868 -18.461912,-2.43868 -3.471576,0 -15.375757,7.93577 -19.259008,12.83878 -3.977179,5.02159 -14.076595,24.49531 -21.948217,42.32061 l -5.894942,13.34908 -17.1606843,-0.16408 c -9.4383807,-0.0902 -23.0544367,-0.49069 -30.2579007,-0.8899 z M -182.64781,364.56716 c -1.006,-1.11162 -2.0476,-1.80263 -2.31466,-1.53557 -0.67696,0.67697 1.83584,3.5567 3.1035,3.5567 0.57215,0 0.21717,-0.90951 -0.78884,-2.02113 z"
       id="path899"
       inkscape:connector-curvature="0"
       transform="scale(0.26458333)" />
    <path
       style="opacity:1;fill:#000000;fill-opacity:1;stroke:none;stroke-width:10.07477379;stroke-miterlimit:4;stroke-dasharray:none;stroke-opacity:1"
       d="m -35.550517,555.95796 c -22.61281,-1.49784 -58.937014,-11.00276 -87.039303,-22.77552 -13.89378,-5.82045 -43.55282,-21.15535 -61.05987,-31.57037 -20.15561,-11.99066 -53.22326,-33.87312 -68.50846,-45.33537 -22.96199,-17.21901 -45.53419,-40.65149 -97.89106,-101.62192 -31.77129,-36.99819 -34.06918,-40.68647 -42.08197,-67.5445 -6.06063,-20.31459 -6.03149,-22.53915 0.54867,-41.8923 2.83176,-8.32858 7.10442,-19.32478 9.49481,-24.436 10.04924,-21.48772 49.45464,-74.7298 69.6143,-94.05844 8.43482,-8.08713 26.10174,-21.30367 41.67692,-31.17833 29.64571,-18.795376 77.08177,-37.057471 131.69746,-50.701345 23.47448,-5.864299 33.60237,-7.532921 53.678373,-8.843785 24.485528,-1.598784 39.289099,-0.597226 55.114009,3.728823 18.349609,5.016224 35.7777681,11.036518 45.129989,15.589468 13.640035,6.640391 89.708419,62.490269 105.596209,77.529389 15.0755,14.27022 31.1954,37.91534 46.04816,67.54471 11.25916,22.46061 17.63017,39.85964 39.43583,107.69809 l 11.19304,34.82201 -1.13588,19.14207 c -1.7851,30.08289 -4.12487,36.6057 -19.22289,53.58974 -23.26331,26.16933 -79.63318,79.90102 -83.82409,79.90102 -1.27576,0 -13.666475,-1.64439 -27.534925,-3.6542 l -25.215365,-3.65419 -5.039191,2.64504 c -12.160675,6.38307 -18.069237,14.8936 -32.439905,46.72553 l -8.755482,19.39394 -19.1985589,-0.15475 C -15.828916,556.76166 -29.455279,556.3617 -35.550517,555.95796 Z M -182.60079,364.64036 c -0.36525,-0.59097 -1.1462,-1.0745 -1.73546,-1.0745 -0.66805,0 -0.59162,0.57807 0.20303,1.53557 1.3818,1.66495 2.61675,1.2934 1.53243,-0.46107 z"
       id="path901"
       inkscape:connector-curvature="0"
       transform="scale(0.26458333)" />
    <path
       style="opacity:1;fill:#000000;fill-opacity:1;stroke:none;stroke-width:10.07477379;stroke-miterlimit:4;stroke-dasharray:none;stroke-opacity:1"
       d="m -37.565472,555.91903 c -19.525536,-1.54206 -53.155886,-10.10292 -77.493768,-19.72662 -29.19971,-11.54617 -69.10712,-33.55324 -108.55201,-59.86135 -44.88422,-29.93593 -60.72795,-45.15519 -126.04708,-121.07899 -29.40504,-34.179 -33.81047,-40.72358 -39.84137,-59.18719 -8.99418,-27.53571 -9.10402,-30.19684 -2.09914,-50.85443 8.75383,-25.8153 15.50121,-38.08763 37.67897,-68.53164 30.48254,-41.8442 47.77102,-58.71456 83.1767,-81.165103 26.7354,-16.952762 67.88311,-33.513801 115.80658,-46.609567 39.79733,-10.875183 53.57604,-12.990985 85.635581,-13.149851 l 24.683195,-0.122314 15.28588,4.277557 c 17.83908,4.992034 36.9971887,11.552098 44.155285,15.119521 6.539637,3.259196 21.768523,13.744099 49.87013,34.33498 45.646649,33.446657 58.412099,44.221557 70.080449,59.152647 13.3868,17.13007 31.0616,48.17096 41.30339,72.53799 5.19338,12.35596 17.6723,48.82713 31.66616,92.54821 l 9.32176,29.12401 -0.72408,15.205 c -1.51446,31.80291 -4.3197,40.40121 -18.43725,56.51158 -11.84206,13.51368 -44.66113,46.30526 -65.01632,64.96186 l -17.9452,16.44771 -9.76043,-1.16578 c -5.368231,-0.64118 -17.742733,-2.3676 -27.498882,-3.83647 l -17.738473,-2.67069 -5.575027,3.18971 c -11.751105,6.7233 -17.670992,15.48997 -32.583702,48.25272 l -7.91044,17.37899 -20.6830673,-0.14341 C -18.18332,556.77924 -32.024347,556.35665 -37.565472,555.91903 Z M -182.60079,364.64036 c -0.36525,-0.59097 -1.1462,-1.0745 -1.73546,-1.0745 -0.66805,0 -0.59162,0.57807 0.20303,1.53557 1.3818,1.66495 2.61675,1.2934 1.53243,-0.46107 z"
       id="path903"
       inkscape:connector-curvature="0"
       transform="scale(0.26458333)" />
    <path
       style="opacity:1;fill:url(#linearGradient913);fill-opacity:1;stroke:none;stroke-width:10.07477379;stroke-miterlimit:4;stroke-dasharray:none;stroke-opacity:1"
       d="m -38.069211,555.98924 c -19.81976,-1.6559 -53.515263,-10.34682 -78.175739,-20.1635 -37.6981,-15.00662 -95.93328,-49.22391 -137.8575,-81.00108 -19.70029,-14.93214 -36.99339,-32.43875 -75.71565,-76.65038 -49.02084,-55.97017 -52.90705,-61.37052 -60.17519,-83.62062 -8.49146,-25.99504 -8.58297,-28.77066 -1.62754,-49.36639 2.80696,-8.31169 7.25858,-19.64581 9.8925,-25.18694 9.7309,-20.47149 43.36874,-66.49668 65.06854,-89.03045 21.45706,-22.28169 58.92223,-45.826996 96.54122,-60.672152 17.93023,-7.075601 48.25331,-16.978815 68.89073,-22.499018 38.02839,-10.172029 50.43277,-11.979718 82.934308,-12.086011 l 24.683196,-0.08072 13.344461,3.819 c 19.754384,5.653432 39.1871718,12.505449 46.600442,16.431353 7.550167,3.998404 23.330375,14.98995 55.411256,38.596151 43.229897,31.810017 55.829417,43.105607 68.745267,61.630757 14.28329,20.48647 31.51568,52.98791 39.48408,74.46961 5.06508,13.65478 20.78296,60.68204 29.9554,89.62539 l 7.1711,22.62814 -0.6971,15.15226 c -1.24479,27.05711 -3.17833,35.43788 -10.81401,46.87241 -5.74874,8.60881 -38.46742,42.7288 -60.87907,63.48646 -10.46962,9.69697 -21.35306,19.78433 -24.18539,22.41637 -3.66295,3.40391 -5.98546,4.78552 -8.04456,4.78552 -1.59217,0 -14.117974,-1.62645 -27.835111,-3.61433 l -24.940263,-3.61432 -6.008696,3.65009 c -3.304778,2.00755 -8.065481,5.93773 -10.579339,8.73375 -4.662544,5.18588 -14.995293,24.55231 -24.260296,45.47054 l -4.796933,10.83039 -21.7832824,-0.14841 C -19.70318,556.77149 -33.359254,556.38275 -38.069211,555.98924 Z M -182.13847,365.13654 c 0,-0.24436 -0.45337,-0.72448 -1.00748,-1.06694 -0.55411,-0.34246 -1.00748,-0.14254 -1.00748,0.44428 0,0.58681 0.45337,1.06693 1.00748,1.06693 0.55411,0 1.00748,-0.19992 1.00748,-0.44427 z"
       id="path905"
       inkscape:connector-curvature="0"
       transform="scale(0.26458333)" />
    <flowRoot
       xml:space="preserve"
       id="flowRoot917-7"
       style="font-style:normal;font-variant:normal;font-weight:300;font-stretch:normal;font-size:40px;line-height:1.25;font-family:Potra;-inkscape-font-specification:'Potra, Light';font-variant-ligatures:normal;font-variant-caps:normal;font-variant-numeric:normal;text-align:start;letter-spacing:0px;word-spacing:0px;writing-mode:lr-tb;text-anchor:start;fill:url(#linearGradient931-6);fill-opacity:1;stroke:none"
       transform="matrix(0.5414508,0,0,0.58089459,-180.4503,15.213889)"><flowRegion
         id="flowRegion919-4"
         style="fill:url(#linearGradient1007);fill-opacity:1"><rect
           id="rect921-0"
           width="253.88429"
           height="194.44313"
           x="229.70483"
           y="59.631027"
           style="fill:url(#linearGradient1005);fill-opacity:1" /></flowRegion><flowPara
         id="flowPara923-3"
         style="fill:url(#linearGradient1009);fill-opacity:1">RZTECH</flowPara></flowRoot>    <text
       xml:space="preserve"
       style="font-style:normal;font-variant:normal;font-weight:300;font-stretch:normal;font-size:10.58333302px;line-height:1.25;font-family:Potra;-inkscape-font-specification:'Potra, Light';font-variant-ligatures:normal;font-variant-caps:normal;font-variant-numeric:normal;text-align:start;letter-spacing:0px;word-spacing:0px;writing-mode:lr-tb;text-anchor:start;fill:#000000;fill-opacity:1;stroke:none;stroke-width:0.26458332"
       x="9.5962219"
       y="211.43369"
       id="text1013"><tspan
         sodipodi:role="line"
         id="tspan1011"
         x="9.5962219"
         y="221.10716"
         style="stroke-width:0.26458332" /></text>
    <flowRoot
       xml:space="preserve"
       id="flowRoot917-7-1"
       style="font-style:normal;font-variant:normal;font-weight:300;font-stretch:normal;font-size:40px;line-height:1.25;font-family:Potra;-inkscape-font-specification:'Potra, Light';font-variant-ligatures:normal;font-variant-caps:normal;font-variant-numeric:normal;text-align:start;letter-spacing:0px;word-spacing:0px;writing-mode:lr-tb;text-anchor:start;fill:url(#linearGradient1117);fill-opacity:1;stroke:none"
       transform="matrix(0.46581215,0,0,0.83063803,-178.71378,5.3107955)"><flowRegion
         id="flowRegion919-4-3"
         style="fill:url(#linearGradient1121);fill-opacity:1"><rect
           id="rect921-0-4"
           width="418.31586"
           height="201.32635"
           x="229.70483"
           y="59.631027"
           style="fill:url(#linearGradient1119);fill-opacity:1" /></flowRegion><flowPara
         id="flowPara923-3-9"
         style="font-style:normal;font-variant:normal;font-weight:300;font-stretch:normal;font-size:15.09677887px;font-family:Potra;-inkscape-font-specification:'Potra, Light';font-variant-ligatures:normal;font-variant-caps:normal;font-variant-numeric:normal;font-feature-settings:normal;text-align:start;writing-mode:lr-tb;text-anchor:start;fill:url(#linearGradient1123);fill-opacity:1">ETHICAL HACKER WITH A BEANIE</flowPara></flowRoot>  </g>
</svg>
